<svg height="512" id="Layer_1" version="1.1" width="512" xml:space="preserve" xmlns="http://www.w3.org/2000/svg"><path fill="#67A969" d="M0 512h512V0H0v512"/><path d="M93.801 109.799H107v23.402c0 4.91-.438 8.65-1.312 11.21-.875 2.563-2.634 4.734-5.283 6.516-2.646 1.783-6.036 2.673-10.167 2.673-4.369 0-7.753-.582-10.153-1.748-2.401-1.166-4.255-2.869-5.564-5.109-1.309-2.24-2.083-5.012-2.32-8.311l13.199-1.633c.019 1.79.182 3.115.489 3.981a4.294 4.294 0 001.555 2.095c.5.351 1.211.525 2.129.525 1.456 0 2.524-.549 3.205-1.649.682-1.103 1.023-2.954 1.023-5.561v-26.391m40.5 28.801a53.876 53.876 0 01-4.876 1.474c-2.305.612-3.765 1.215-4.377 1.809-.631.61-.947 1.309-.947 2.09 0 .889.311 1.613.932 2.18.623.565 1.535.849 2.743.849a7.071 7.071 0 003.529-.919c1.084-.612 1.854-1.36 2.31-2.241.458-.88.686-2.025.686-3.431V138.6m-9-6l-12-1.199c.424-2.118 1.037-3.789 1.837-5.007.8-1.219 1.952-2.274 3.459-3.168 1.081-.646 2.567-1.143 4.458-1.496 1.89-.354 3.937-.528 6.136-.528 3.531 0 6.368.199 8.512.598 2.145.402 3.928 1.235 5.353 2.503 1.005.884 1.799 2.128 2.376 3.737.578 1.609.868 3.146.868 4.607v13.734c0 1.463.092 2.609.276 3.44.184.832.59 1.891 1.215 3.179h-11.476c-.461-.813-.764-1.432-.904-1.856-.141-.426-.28-1.094-.417-2.006-1.53 1.487-3.053 2.55-4.565 3.188-2.069.85-4.473 1.274-7.209 1.274-3.637 0-6.4-.839-8.288-2.521s-2.831-3.754-2.831-6.217c0-2.313.677-4.214 2.034-5.7 1.356-1.492 3.862-2.603 7.518-3.328 4.375-.874 7.213-1.488 8.513-1.842a39.56 39.56 0 004.134-1.393c0-1.33-.266-2.264-.793-2.798-.528-.535-1.453-.802-2.779-.802-1.701 0-2.975.308-3.825.919-.661.476-1.196 1.37-1.602 2.682zm23.098-10.801h12.283l6.018 19.773 5.982-19.773H185L171.772 153h-10.538l-12.835-31.201m61.203 16.801a53.876 53.876 0 01-4.876 1.474c-2.305.612-3.765 1.215-4.376 1.809-.631.61-.948 1.309-.948 2.09 0 .889.311 1.613.932 2.18.623.565 1.537.849 2.743.849a7.075 7.075 0 003.53-.919c1.084-.612 1.854-1.36 2.312-2.241.456-.88.684-2.025.684-3.431V138.6m-9.001-6l-12-1.199c.425-2.118 1.037-3.789 1.837-5.007.8-1.219 1.952-2.274 3.458-3.168 1.082-.646 2.568-1.143 4.459-1.496 1.89-.354 3.936-.528 6.136-.528 3.53 0 6.368.199 8.512.598 2.144.402 3.929 1.235 5.354 2.503 1.006.884 1.799 2.128 2.376 3.737.579 1.609.868 3.146.868 4.607v13.734c0 1.463.092 2.609.276 3.44.183.832.589 1.891 1.214 3.179h-11.477c-.46-.813-.764-1.432-.904-1.856-.141-.426-.279-1.094-.417-2.006-1.53 1.487-3.053 2.55-4.566 3.188-2.069.85-4.472 1.274-7.209 1.274-3.637 0-6.4-.839-8.289-2.521-1.888-1.682-2.831-3.754-2.831-6.217 0-2.313.678-4.214 2.036-5.7 1.355-1.492 3.861-2.603 7.517-3.328 4.376-.874 7.214-1.488 8.514-1.842 1.3-.354 2.677-.817 4.135-1.393 0-1.33-.266-2.264-.793-2.798-.529-.535-1.454-.802-2.779-.802-1.7 0-2.975.308-3.825.919-.663.476-1.198 1.37-1.602 2.682zm46.2 6.179L260 138c.258 2.026.778 3.565 1.566 4.621 1.283 1.719 3.112 2.58 5.494 2.58 1.774 0 3.143-.448 4.101-1.347.96-.896 1.439-1.936 1.439-3.116 0-1.119-.425-2.121-1.274-3.01-.857-.889-3.053-1.727-6.592-2.513-5.793-1.319-9.924-3.06-12.394-5.222-2.492-2.164-3.739-4.915-3.739-8.26 0-2.206.641-4.288 1.921-6.244 1.282-1.957 3.208-3.492 5.779-4.611 2.573-1.118 6.099-1.678 10.581-1.678 5.493 0 9.683 1.034 12.566 3.106 2.885 2.072 4.602 5.37 5.151 9.896l-13.198.798c-.288-2.094-.89-3.618-1.806-4.57-.916-.954-2.179-1.43-3.791-1.43-1.326 0-2.326.329-2.998.989a3.25 3.25 0 00-1.005 2.404c0 .688.155 1.31.467 1.866.301.567 1.619 1.1 3.957 1.595 5.774 1.255 9.912 2.525 12.413 3.81 2.499 1.284 4.319 2.879 5.455 4.781 1.138 1.902 1.708 4.033 1.708 6.389 0 2.763-.763 5.312-2.288 7.645-1.525 2.336-3.657 4.104-6.394 5.313-2.738 1.207-6.188 1.809-10.351 1.809-7.313 0-12.376-1.394-15.191-4.185-2.816-2.792-4.408-6.337-4.775-10.637M314.601 141l12 1.201c-.624 2.325-1.651 4.336-3.079 6.031-1.428 1.697-3.25 3.015-5.465 3.958-2.217.94-5.035 1.409-8.463 1.409-3.299 0-6.049-.306-8.251-.919-2.199-.611-4.09-1.604-5.671-2.976a15.112 15.112 0 01-3.722-4.828c-.899-1.849-1.35-4.297-1.35-7.346 0-3.188.548-5.842 1.642-7.959.799-1.557 1.896-2.952 3.286-4.187 1.389-1.234 2.815-2.155 4.279-2.761 2.33-.95 5.313-1.424 8.943-1.424 5.088 0 8.966.864 11.636 2.596 2.668 1.731 4.537 4.267 5.613 7.604l-12 1.801c-.324-1.389-.917-2.436-1.78-3.142s-2.019-1.06-3.469-1.06c-1.832 0-3.313.728-4.449 2.18-1.134 1.454-1.701 3.651-1.701 6.595 0 2.626.568 4.619 1.707 5.981 1.137 1.363 2.587 2.043 4.351 2.043 1.467 0 2.701-.39 3.701-1.175s1.749-1.991 2.242-3.622M332 121.799h11.176v5.363c1.082-2.269 2.196-3.828 3.349-4.684 1.147-.853 2.569-1.277 4.263-1.277 1.77 0 3.708.527 5.813 1.583l-3.722 8.879c-1.418-.574-2.54-.864-3.365-.864-1.57 0-2.788.636-3.657 1.904-1.236 1.787-1.856 5.131-1.856 10.031V153h-12v-31.201m26.999 0h12V153h-12v-31.201m0-12h12v8.402h-12v-8.402zm31.116 27.779c0 2.786.515 4.855 1.537 6.202 1.024 1.346 2.323 2.019 3.891 2.019 1.38 0 2.537-.646 3.464-1.938.929-1.295 1.394-3.485 1.394-6.572 0-2.851-.484-4.944-1.453-6.282-.97-1.336-2.151-2.006-3.544-2.006-1.514 0-2.771.673-3.779 2.021-1.006 1.345-1.51 3.532-1.51 6.556M378.201 165v-43.201h11.128v4.107c1.544-1.719 2.959-2.88 4.247-3.486 1.736-.813 3.658-1.219 5.765-1.219 4.157 0 7.372 1.584 9.647 4.757 2.274 3.173 3.413 7.092 3.413 11.76 0 5.157-1.24 9.092-3.717 11.809-2.479 2.716-5.615 4.073-9.409 4.073-1.831 0-3.502-.272-5.016-.819a12.128 12.128 0 01-4.059-2.443V165h-11.999zm54.601-55.201v12h6.6v9h-6.6v11.29c0 1.355.13 2.251.394 2.69.398.681 1.102 1.02 2.11 1.02.906 0 2.17-.258 3.797-.777l.897 7.688c-2.987.592-5.777.89-8.369.89-3.008 0-5.225-.374-6.648-1.126-1.426-.747-2.479-1.891-3.16-3.426-.683-1.533-1.021-4.014-1.021-7.439v-10.81h-4.201v-9h4.201v-5.793l12-6.207" fill="#FFF"/><path d="M512 364.931C473.734 325.406 350 201 350 201H170l-20 167 147 144h215V364.931" fill="#010101" opacity=".191"/><path fill="#FFF" d="M306.814 266.761l35.54.176-2.965 23.954-1.628 12.881-7.967 64.216L235.777 400l-86.037-32.012 5.256-42.682h35.567l-2.139 17.59 52.016 19.324 56.9-19.324 4.997-40.296H192.923l-35.538-.176 2.966-23.952 1.628-12.883 7.966-64.215 94.019-32.012L350 201.374l-5.255 42.683h-35.57l2.14-17.594L259.3 207.14l-56.902 19.323-4.997 40.298h109.413"/></svg>