<svg height="32" id="svg8" version="1.1" viewBox="0 0 8.467 8.467" width="32" xmlns="http://www.w3.org/2000/svg"><g id="layer1" transform="translate(0 -288.533)" color="#000" font-style="normal" font-variant="normal" font-weight="400" font-stretch="normal" font-size="medium" font-family="sans-serif" letter-spacing="normal" word-spacing="normal" writing-mode="lr-tb" direction="ltr" dominant-baseline="auto" text-anchor="start" clip-rule="nonzero" visibility="visible" color-interpolation="sRGB" color-interpolation-filters="linearRGB" fill="#000" fill-opacity="1" fill-rule="nonzero" stroke="none" stroke-width=".529" stroke-linecap="round" stroke-linejoin="round" stroke-miterlimit="4" stroke-dasharray="none" stroke-dashoffset="0" stroke-opacity="1" paint-order="stroke fill markers" color-rendering="auto" image-rendering="auto" shape-rendering="auto" text-rendering="auto"><path d="M4.232 288.797a2.914 2.914 0 00-2.91 2.91c0 2.823 2.746 4.969 2.746 4.969a.265.265 0 00.33 0s2.747-2.146 2.747-4.969a2.916 2.916 0 00-2.913-2.91zm0 .53a2.378 2.378 0 012.383 2.38c0 2.31-2.09 4.134-2.38 4.38-.289-.245-2.383-2.07-2.383-4.38a2.377 2.377 0 012.38-2.38z" id="path929" style="line-height:normal;font-variant-ligatures:normal;font-variant-position:normal;font-variant-caps:normal;font-variant-numeric:normal;font-variant-alternates:normal;font-feature-settings:normal;text-indent:0;text-align:start;text-decoration-line:none;text-decoration-style:solid;text-decoration-color:#000;text-transform:none;text-orientation:mixed;white-space:normal;shape-padding:0;isolation:auto;mix-blend-mode:normal;solid-color:#000;solid-opacity:1" text-decoration="none" baseline-shift="baseline" display="inline" overflow="visible" opacity="1" vector-effect="none"/><path d="M4.232 290.385c-.727 0-1.322.595-1.322 1.322 0 .728.595 1.324 1.322 1.324a1.33 1.33 0 001.325-1.324c0-.727-.597-1.322-1.325-1.322zm0 .53a.79.79 0 01.795.792.792.792 0 01-.795.795.79.79 0 01-.793-.795.79.79 0 01.793-.793z" id="circle931" style="line-height:normal;font-variant-ligatures:normal;font-variant-position:normal;font-variant-caps:normal;font-variant-numeric:normal;font-variant-alternates:normal;font-feature-settings:normal;text-indent:0;text-align:start;text-decoration-line:none;text-decoration-style:solid;text-decoration-color:#000;text-transform:none;text-orientation:mixed;white-space:normal;shape-padding:0;isolation:auto;mix-blend-mode:normal;solid-color:#000;solid-opacity:1" text-decoration="none" baseline-shift="baseline" display="inline" overflow="visible" opacity="1" vector-effect="none"/></g></svg>